<svg xmlns="http://www.w3.org/2000/svg" viewBox="68 86 764 184" width="764" height="184" fill="none">
  <path d="M801.50 216.25L801.00 262.25L826.00 262.50L826.25 253.25L811.00 252.50L811.00 217.50L810.25 216.25Z M750.50 216.25L749.25 217.25L737.00 262.25L746.50 262.75L749.25 255.25L759.25 255.00L761.00 256.25L762.50 262.50L771.50 262.75L771.75 260.00L759.75 217.00L759.00 216.25Z M754.25 233.00L756.00 235.75L758.00 243.75L757.75 247.00L750.75 246.50Z M622.50 216.25L622.00 262.25L648.50 262.50L648.50 254.00L632.50 254.00L631.50 253.00L632.00 243.75L646.25 243.25L645.75 235.00L632.25 235.00L631.50 234.25L631.50 225.75L632.50 224.75L647.75 224.75L647.75 216.50Z M568.50 216.25L568.00 262.25L593.00 262.50L593.25 253.25L578.00 252.50L578.00 217.50L577.25 216.25Z M509.50 216.25L509.00 262.25L518.50 262.50L518.50 246.75L519.25 245.75L524.50 245.75L528.00 248.75L528.50 262.25L538.50 262.75L537.75 260.25L537.75 246.75L536.75 244.25L534.25 241.75L538.50 235.50L538.50 225.25L536.75 221.00L533.50 218.00L530.75 217.00Z M519.25 224.75L525.75 224.75L528.75 227.50L529.00 233.75L526.25 237.00L519.25 237.25L518.50 236.50L518.50 225.50Z M449.50 216.25L449.00 252.25L450.25 256.25L453.25 260.50L457.25 262.75L465.75 263.50L472.25 261.75L476.50 257.25L478.50 251.00L478.50 216.75L468.75 216.75L468.75 249.25L468.00 251.50L465.25 254.00L462.25 254.00L459.75 251.75L458.75 249.25L458.75 217.25L457.25 216.25Z M382.50 216.25L382.00 262.25L391.25 262.25L391.00 236.25L392.75 236.50L399.25 248.75L400.50 248.75L408.50 235.75L409.00 262.50L417.50 262.75L417.75 216.50L409.25 216.50L401.00 233.25L400.00 233.75L390.75 216.50Z M327.50 216.25L327.00 262.25L353.50 262.50L353.50 254.00L337.50 254.00L336.50 253.00L337.00 243.75L351.25 243.25L350.75 235.00L337.25 235.00L336.50 234.25L336.50 225.75L337.50 224.75L352.75 224.75L352.75 216.50Z M272.50 216.25L272.00 262.25L297.00 262.50L297.25 253.25L282.00 252.50L282.00 217.50L281.25 216.25Z M684.75 217.25L680.25 221.00L677.25 229.00L677.00 248.25L679.25 258.25L684.25 262.75L691.75 263.50L696.25 261.75L700.50 256.25L701.50 262.75L708.75 262.50L708.50 238.00L692.75 238.25L692.75 245.00L698.00 245.25L699.25 246.50L699.00 250.00L696.00 254.00L694.50 254.75L690.25 254.00L688.00 251.50L687.25 248.75L687.25 230.75L688.75 226.50L690.75 224.75L695.75 224.75L697.75 226.25L698.75 228.50L699.25 233.25L708.25 233.25L708.75 226.75L706.75 221.25L703.50 218.00L699.00 216.00L688.25 216.00Z M165.75 135.00L161.25 138.50L157.00 144.25L156.00 146.75L156.00 150.75L157.25 154.00L219.75 216.50L219.75 226.25L218.50 226.25L157.75 167.00L153.50 165.25L149.00 166.00L145.25 169.50L144.25 173.50L144.25 210.00L145.00 213.25L147.00 216.50L184.25 253.00L147.50 253.25L144.25 254.25L143.25 255.50L143.00 259.50L144.50 261.50L147.25 262.25L190.50 262.25L195.00 260.75L197.25 256.75L196.75 253.25L195.25 250.75L153.75 210.75L153.50 176.00L154.50 176.00L218.25 238.50L220.50 239.75L224.50 239.75L227.25 237.75L228.50 235.25L228.50 214.75L226.50 210.50L165.00 149.75L165.75 147.00L168.50 143.75L170.00 143.50L237.00 209.25L237.75 211.00L237.75 240.25L237.00 242.50L232.50 247.00L225.00 252.00L222.25 252.75L170.50 203.00L168.00 201.75L165.25 202.00L163.00 204.50L163.00 207.50L216.25 259.50L222.50 261.75L228.00 260.50L240.75 251.75L243.50 248.75L245.75 244.25L246.50 240.75L246.50 209.50L245.75 207.00L242.75 202.25L176.25 137.00L173.00 135.00Z M106.25 131.00L104.25 134.00L104.50 136.25L111.00 145.25L113.25 146.75L116.25 146.75L118.25 145.50L125.00 136.25L124.50 132.25L122.00 130.50L118.50 131.00L114.50 135.00L111.00 131.00Z M158.00 120.75L154.75 120.25L153.00 121.25L132.00 147.00L128.00 154.50L127.25 157.75L127.25 239.25L126.00 243.75L122.25 248.25L116.00 253.00L97.50 254.00L96.00 255.50L95.50 259.00L97.75 261.75L119.00 261.75L129.50 253.75L134.50 246.25L136.00 239.75L136.00 158.75L138.75 152.75L159.75 127.00L160.50 124.00Z M132.50 111.25L127.50 113.50L125.25 117.25L125.00 120.50L126.25 123.75L129.00 126.50L134.50 127.50L139.75 124.00L141.00 118.00L138.25 113.25Z M95.75 111.25L90.25 114.25L88.25 120.00L89.25 123.25L92.00 126.25L95.00 127.50L98.00 127.50L100.50 126.50L103.50 123.50L104.50 118.00L103.25 115.00L101.00 112.75Z M97.50 101.50L98.25 105.00L100.75 106.75L128.75 106.75L131.25 105.00L132.00 103.00L131.75 100.50L128.50 98.00L101.00 98.00L98.75 99.25Z M154.00 93.00L152.50 92.25L148.50 93.00L142.00 101.00L141.00 105.00L142.75 107.75L145.75 108.50L148.25 107.50L155.50 98.25L155.50 95.50Z M75.50 93.00L74.25 94.50L74.00 98.00L81.25 107.50L83.50 108.50L86.75 107.75L88.50 105.25L87.50 101.00L81.25 93.25L79.25 92.25Z" fill="#241f20" fill-rule="evenodd"/>
</svg>
